<?xml version="1.0" encoding="UTF-8" standalone="no"?>
<!-- Created with Inkscape (http://www.inkscape.org/) -->

<svg
	xmlns:dc="http://purl.org/dc/elements/1.1/"
	xmlns:cc="http://creativecommons.org/ns#"
	xmlns:rdf="http://www.w3.org/1999/02/22-rdf-syntax-ns#"
	xmlns:sodipodi="http://sodipodi.sourceforge.net/DTD/sodipodi-0.dtd"
	xmlns:inkscape="http://www.inkscape.org/namespaces/inkscape"
	xmlns="http://www.w3.org/2000/svg"
	width="75mm"
	height="75mm"
	viewBox="0 0 210 297"
	version="1.1"
	id="svg8"
	inkscape:version="0.92.3 (2405546, 2018-03-11)"
	sodipodi:docname="loading.svg">
	<defs
		id="defs2">
		<inkscape:perspective
			sodipodi:type="inkscape:persp3d"
			inkscape:vp_x="22983252 : 32504887 : 0"
			inkscape:vp_y="270459210 : 1.0249234e+008 : 0"
			inkscape:vp_z="22983250 : 32504884 : 0"
			inkscape:persp3d-origin="29399999 : 39204000 : 1"
			id="perspective4701"/>
	</defs>
	<sodipodi:namedview
		id="base"
		pagecolor="#ffffff"
		bordercolor="#666666"
		borderopacity="1.0"
		inkscape:pageopacity="0.0"
		inkscape:pageshadow="2"
		inkscape:zoom="2.8"
		inkscape:cx="168.23178"
		inkscape:cy="144.42726"
		inkscape:document-units="mm"
		inkscape:current-layer="layer1"
		showgrid="false"
		inkscape:window-width="2560"
		inkscape:window-height="1017"
		inkscape:window-x="-8"
		inkscape:window-y="-8"
		inkscape:window-maximized="1"
		viewbox-width="0.01"
		viewbox-height="0.01"
		scale-x="2.8"
		width="75mm"/>
	<metadata
		id="metadata5">
		<rdf:RDF>
			<cc:Work
				rdf:about="">
				<dc:format>image/svg+xml</dc:format>
				<dc:type
					rdf:resource="http://purl.org/dc/dcmitype/StillImage"/>
				<dc:title></dc:title>
			</cc:Work>
		</rdf:RDF>
	</metadata>
	<g
		inkscape:label="Layer 1"
		inkscape:groupmode="layer"
		id="layer1"
		transform="matrix(3.96,0,0,3.9586464,128.76,-878.71802)">
		<path
			sodipodi:type="star"
			style="fill:#000000;stroke-width:0.22580649"
			id="path4697"
			sodipodi:sides="12"
			sodipodi:cx="-6"
			sodipodi:cy="259.5"
			sodipodi:r1="29.164078"
			sodipodi:r2="37.875427"
			sodipodi:arg1="-0.94262621"
			sodipodi:arg2="-0.68082682"
			inkscape:flatsided="false"
			inkscape:rounded="0.56"
			inkscape:randomized="0"
			d="m 11.138713,235.90322 c 5.570796,4.04616 7.958731,-5.59348 12.292484,-0.24337 4.333754,5.35012 -5.591619,5.68462 -2.790247,11.9741 2.801372,6.28947 9.689206,-0.86474 10.767288,5.93548 1.078083,6.80021 -7.684795,2.12721 -8.403472,8.97474 -0.718677,6.84753 8.823465,4.09572 6.357006,10.52392 -2.46646,6.4282 -7.718836,-2.00017 -11.764994,3.57062 -4.046157,5.5708 5.593485,7.95873 0.243369,12.29249 -5.350116,4.33375 -5.684621,-5.59162 -11.9740939,-2.79025 -6.289473,2.80137 0.8647339,9.68921 -5.93547901,10.76729 -6.80021289,1.07808 -2.12721609,-7.6848 -8.97474569,-8.40347 -6.8475294,-0.71868 -4.0957214,8.82346 -10.5239194,6.357 -6.428199,-2.46646 2.000174,-7.71883 -3.570622,-11.76499 -5.570796,-4.04616 -7.958731,5.59348 -12.292484,0.24337 -4.333754,-5.35012 5.591619,-5.68462 2.790247,-11.9741 -2.801372,-6.28947 -9.689206,0.86474 -10.767288,-5.93548 -1.078083,-6.80021 7.684795,-2.12721 8.403472,-8.97474 0.718677,-6.84753 -8.823465,-4.09572 -6.357006,-10.52392 2.46646,-6.4282 7.718836,2.00017 11.764994,-3.57062 4.046157,-5.5708 -5.593485,-7.95873 -0.243369,-12.29249 5.350116,-4.33375 5.684621,5.59162 11.974094,2.79025 6.289473,-2.80137 -0.864734,-9.68921 5.935479,-10.76729 6.8002128,-1.07808 2.127216,7.6848 8.9747456,8.40347 6.8475295,0.71868 4.0957213,-8.82346 10.5239196,-6.357 6.4281988,2.46646 -2.0001744,7.71883 3.5706218,11.76499 z"
			inkscape:transform-center-x="-0.13422971"
			inkscape:transform-center-y="0.3188494"
			transform="matrix(1,0,0,1.0003419,0,-0.10155202)"/>
		<circle
			style="fill:#008000;stroke-width:0.26458332"
			id="path4699"
			cx="-6"
			cy="259.5"
			r="25"/>
		<path
			sodipodi:type="star"
			style="fill:#917c6f;stroke-width:0.26458332"
			id="path4773"
			sodipodi:sides="6"
			sodipodi:cx="-4.5684547"
			sodipodi:cy="260.71429"
			sodipodi:r1="0.09102872"
			sodipodi:r2="9.1028719"
			sodipodi:arg1="-0.72664234"
			sodipodi:arg2="-0.20304356"
			inkscape:flatsided="false"
			inkscape:rounded="0"
			inkscape:randomized="0"
			d="m -4.500419,260.65382 8.8478393,-1.77513 -8.8294833,1.86429 5.9612271,6.77489 -6.0292628,-6.71442 -2.8866122,8.55002 2.8002204,-8.5787 -8.8478395,1.77513 8.8294835,-1.86429 -5.9612275,-6.77489 6.0292632,6.71442 2.8866122,-8.55002 z"
			inkscape:transform-center-y="-3.2845894e-006"/>
		<path
			sodipodi:type="star"
			style="fill:#917c6f;stroke-width:0.26458332"
			id="path4777"
			sodipodi:sides="6"
			sodipodi:cx="38.913189"
			sodipodi:cy="260.62512"
			sodipodi:r1="19.683115"
			sodipodi:r2="9.0241404"
			sodipodi:arg1="-2.7934783"
			sodipodi:arg2="-1.9287348"
			inkscape:flatsided="false"
			inkscape:rounded="0"
			inkscape:randomized="0"
			d="m 20.410714,253.9107 15.340921,-1.73778 -0.274825,-10.92862 9.175422,12.41674 9.327053,-5.70232 -6.165499,14.15452 9.601878,5.2263 -15.340921,1.73778 0.274825,10.92863 -9.175422,-12.41674 -9.327053,5.70232 6.165499,-14.15452 z"
			inkscape:transform-center-y="-2.3371449e-006"
			transform="matrix(0.67558529,0,0,0.64496744,-32.289178,91.405282)"/>
	</g>
</svg>
